<?xml version="1.0" encoding="UTF-8"?>
<svg width="18px" height="21px" viewBox="0 0 18 21" version="1.1" xmlns="http://www.w3.org/2000/svg" xmlns:xlink="http://www.w3.org/1999/xlink">
    <title>Group 8</title>
    <g id="KNKV" stroke="none" stroke-width="1" fill="none" fill-rule="evenodd">
        <g id="1.1-Homepage" transform="translate(-549.000000, -198.000000)">
            <g id="Group-8" transform="translate(549.000000, 198.500042)">
                <rect id="Rectangle" fill="#FF6900" x="1" y="14.4999583" width="15" height="4"></rect>
                <path d="M16.8749598,19.9999523 C17.2187013,19.9999523 17.4999583,19.7186954 17.4999583,19.3749538 L17.4999583,18.7499553 C17.4999583,18.4452762 17.2812241,18.1913705 16.996038,18.1366679 C16.8320064,17.6288566 16.8320064,16.1210629 16.996038,15.6132517 C17.285115,15.554658 17.4999583,15.3046434 17.4999583,14.9999642 L17.4999583,0.62499851 C17.4999583,0.281256959 17.2187013,0 16.8749598,0 L3.12499255,0 C1.39842654,0 0,1.39842654 0,3.12499255 L0,16.8749598 C0,18.6015258 1.39842654,19.9999523 3.12499255,19.9999523 L16.8749598,19.9999523 Z M1.87499553,14.011693 L1.87499553,3.12499255 C1.87499553,2.43358032 2.43358032,1.87499553 3.12499255,1.87499553 L15.6249627,1.87499553 L15.6249627,13.7499672 L3.12499255,13.7499672 C2.67966585,13.7499672 2.25779949,13.8437323 1.87499553,14.011693 Z M13.437468,6.2499851 C13.6093578,6.2499851 13.7499672,6.10937569 13.7499672,5.93748584 L13.7499672,4.68748882 C13.7499672,4.51559898 13.6093578,4.37498957 13.437468,4.37498957 L5.31248733,4.37498957 C5.14059749,4.37498957 4.99998808,4.51559898 4.99998808,4.68748882 L4.99998808,5.93748584 C4.99998808,6.10937569 5.14059749,6.2499851 5.31248733,6.2499851 L13.437468,6.2499851 Z M13.437468,9.37497765 C13.6093578,9.37497765 13.7499672,9.23436824 13.7499672,9.06247839 L13.7499672,7.81248137 C13.7499672,7.64059152 13.6093578,7.49998212 13.437468,7.49998212 L5.31248733,7.49998212 C5.14059749,7.49998212 4.99998808,7.64059152 4.99998808,7.81248137 L4.99998808,9.06247839 C4.99998808,9.23436824 5.14059749,9.37497765 5.31248733,9.37497765 L13.437468,9.37497765 Z M15.3905883,18.1249627 L3.12499255,18.1249627 C2.43358032,18.1249627 1.87499553,17.566372 1.87499553,16.8749598 C1.87499553,16.1874767 2.43750945,15.6249627 3.12499255,15.6249627 L15.3905883,15.6249627 C15.2851122,16.3007348 15.2851122,17.4491848 15.3905883,18.1249627 Z" id="b" fill="#040074" fill-rule="nonzero"></path>
            </g>
        </g>
    </g>
</svg>