<?xml version="1.0" encoding="UTF-8"?>
<svg width="23px" height="15px" viewBox="0 0 23 15" version="1.1" xmlns="http://www.w3.org/2000/svg" xmlns:xlink="http://www.w3.org/1999/xlink">
    <title>Group 6</title>
    <g id="KNKV" stroke="none" stroke-width="1" fill="none" fill-rule="evenodd">
        <g id="1.1-Homepage" transform="translate(-769.000000, -201.000000)">
            <g id="Group-6" transform="translate(769.000000, 201.000036)">
                <rect id="Rectangle" fill="#FF6900" x="1" y="2.99996424" width="3" height="11"></rect>
                <g id="Group-5">
                    <rect id="Rectangle" fill="#FF6900" x="7" y="3.99996424" width="5" height="4"></rect>
                    <path d="M21.5624486,14.9999642 C22.0802162,14.9999642 22.4999464,14.5802341 22.4999464,14.0624665 L22.4999464,0.937497765 C22.4999464,0.419730139 22.0802162,0 21.5624486,0 L4.37498957,0 C3.56021032,0 2.86551746,0.522535986 2.60749195,1.24999702 L0.937497765,1.24999702 C0.419730139,1.24999702 0,1.66972716 0,2.18749478 L0,12.8124695 C0,14.0205812 0.979383041,14.9999642 2.18749478,14.9999642 L21.5624486,14.9999642 Z M20.6249508,13.1249687 L4.35240662,13.1249687 C4.36701687,13.0228495 4.37498957,12.9185941 4.37498957,12.8124695 L4.37498957,1.87499553 L20.6249508,1.87499553 L20.6249508,13.1249687 Z M2.18749478,13.1249687 C2.01518532,13.1249687 1.87499553,12.9847789 1.87499553,12.8124695 L1.87499553,3.12499255 L2.49999404,3.12499255 L2.49999404,12.8124695 C2.49999404,12.9847789 2.35980425,13.1249687 2.18749478,13.1249687 Z M12.0312213,8.43747988 C12.2900861,8.43747988 12.4999702,8.22759574 12.4999702,7.968731 L12.4999702,4.21873994 C12.4999702,3.9598752 12.2900861,3.74999106 12.0312213,3.74999106 L6.71873398,3.74999106 C6.45986924,3.74999106 6.2499851,3.9598752 6.2499851,4.21873994 L6.2499851,7.968731 C6.2499851,8.22759574 6.45986924,8.43747988 6.71873398,8.43747988 L12.0312213,8.43747988 Z M18.2812064,5.62498659 C18.5400712,5.62498659 18.7499553,5.41510245 18.7499553,5.15623771 L18.7499553,4.21873994 C18.7499553,3.9598752 18.5400712,3.74999106 18.2812064,3.74999106 L14.2187161,3.74999106 C13.9598514,3.74999106 13.7499672,3.9598752 13.7499672,4.21873994 L13.7499672,5.15623771 C13.7499672,5.41510245 13.9598514,5.62498659 14.2187161,5.62498659 L18.2812064,5.62498659 Z M10.9374739,6.87498361 L7.81248137,6.87498361 L7.81248137,5.31248733 L10.9374739,5.31248733 L10.9374739,6.87498361 Z M18.2812064,8.43747988 C18.5400712,8.43747988 18.7499553,8.22759574 18.7499553,7.968731 L18.7499553,7.03123324 C18.7499553,6.7723685 18.5400712,6.56248435 18.2812064,6.56248435 L14.2187161,6.56248435 C13.9598514,6.56248435 13.7499672,6.7723685 13.7499672,7.03123324 L13.7499672,7.968731 C13.7499672,8.22759574 13.9598514,8.43747988 14.2187161,8.43747988 L18.2812064,8.43747988 Z M12.0312213,11.2499732 C12.2900861,11.2499732 12.4999702,11.040089 12.4999702,10.7812243 L12.4999702,9.84372653 C12.4999702,9.58486179 12.2900861,9.37497765 12.0312213,9.37497765 L6.71873398,9.37497765 C6.45986924,9.37497765 6.2499851,9.58486179 6.2499851,9.84372653 L6.2499851,10.7812243 C6.2499851,11.040089 6.45986924,11.2499732 6.71873398,11.2499732 L12.0312213,11.2499732 Z M18.2812064,11.2499732 C18.5400712,11.2499732 18.7499553,11.040089 18.7499553,10.7812243 L18.7499553,9.84372653 C18.7499553,9.58486179 18.5400712,9.37497765 18.2812064,9.37497765 L14.2187161,9.37497765 C13.9598514,9.37497765 13.7499672,9.58486179 13.7499672,9.84372653 L13.7499672,10.7812243 C13.7499672,11.040089 13.9598514,11.2499732 14.2187161,11.2499732 L18.2812064,11.2499732 Z" id="n" fill="#040074" fill-rule="nonzero"></path>
                </g>
            </g>
        </g>
    </g>
</svg>