<?xml version="1.0" encoding="UTF-8"?>
<svg width="18px" height="21px" viewBox="0 0 18 21" version="1.1" xmlns="http://www.w3.org/2000/svg" xmlns:xlink="http://www.w3.org/1999/xlink">
    <title>Group 3</title>
    <g id="KNKV" stroke="none" stroke-width="1" fill="none" fill-rule="evenodd">
        <g id="1.1-Homepage" transform="translate(-952.000000, -198.000000)">
            <g id="Group-3" transform="translate(952.000000, 198.500042)">
                <rect id="Rectangle" fill="#FF6900" x="1" y="4.49995828" width="8" height="15"></rect>
                <path d="M15.6249627,19.9999523 C16.6601165,19.9999523 17.4999583,19.1601106 17.4999583,18.1249568 L17.4999583,4.37498957 C17.4999583,3.33983579 16.6601165,2.5 15.6249627,2.5 L13.7499672,2.5 L13.7499672,0.468748882 C13.7499672,0.210952256 13.539015,0 13.2812183,0 L11.7187221,0 C11.4609254,0 11.2499732,0.210952256 11.2499732,0.468748882 L11.2499732,2.5 L6.2499851,2.5 L6.2499851,0.468748882 C6.2499851,0.210952256 6.03903284,0 5.78123622,0 L4.21873994,0 C3.96094332,0 3.74999106,0.210952256 3.74999106,0.468748882 L3.74999106,2.5 L1.87499553,2.5 C0.839841748,2.5 0,3.33983579 0,4.37498957 L0,18.1249568 C0,19.1601106 0.839841748,19.9999523 1.87499553,19.9999523 L15.6249627,19.9999523 Z M15.3905883,18.1249568 L2.10936997,18.1249568 C1.98047166,18.1249568 1.87499553,18.0194807 1.87499553,17.8905823 L1.87499553,6.2499851 L15.6249627,6.2499851 L15.6249627,17.8905823 C15.6249627,18.0194807 15.5194866,18.1249568 15.3905883,18.1249568 Z" id="c" fill="#040074" fill-rule="nonzero"></path>
            </g>
        </g>
    </g>
</svg>